<svg width="800" height="800" viewBox="0 0 800 800" fill="none" xmlns="http://www.w3.org/2000/svg">
  <rect width="800" height="800" rx="160" fill="#FFF2E6"/>
  <ellipse cx="400" cy="664" rx="160" ry="36" fill="#000000" fill-opacity="0.08"/>
  <circle cx="400" cy="126" r="42" stroke="#C7CED2" stroke-width="18"/>
  <rect x="375" y="156" width="50" height="54" rx="20" fill="#E7ECEF"/>
  <circle cx="400" cy="410" r="220" fill="url(#paint0_linear_31_5)"/>
  <circle cx="400" cy="410" r="214" stroke="white" stroke-opacity="0.7" stroke-width="10"/>
  <circle cx="400" cy="410" r="162" fill="#FFF9F3"/>
  <circle cx="342" cy="396" r="76" fill="#F0C998"/>
  <circle cx="466" cy="396" r="76" fill="#FFF0DA"/>
  <path d="M309 343L327 292L359 337" fill="#F0C998"/>
  <path d="M451 337L483 292L501 343" fill="#FFF0DA"/>
  <circle cx="326" cy="391" r="10" fill="#2B241D"/>
  <circle cx="359" cy="391" r="10" fill="#2B241D"/>
  <circle cx="450" cy="391" r="10" fill="#2B241D"/>
  <circle cx="483" cy="391" r="10" fill="#2B241D"/>
  <path d="M322 425C332 438 352 438 362 425" stroke="#2B241D" stroke-width="6" stroke-linecap="round"/>
  <path d="M446 425C456 438 476 438 486 425" stroke="#2B241D" stroke-width="6" stroke-linecap="round"/>
  <rect x="286" y="498" width="232" height="58" rx="29" fill="#FFE2D1"/>
  <text x="402" y="537" text-anchor="middle" font-size="32" font-family="Arial, sans-serif" letter-spacing="6" fill="#A45A40">PAW PARADE</text>
  <defs>
    <linearGradient id="paint0_linear_31_5" x1="220" y1="228" x2="582" y2="604" gradientUnits="userSpaceOnUse">
      <stop stop-color="#FFFFFF"/>
      <stop offset="1" stop-color="#FFDCC5"/>
    </linearGradient>
  </defs>
</svg>
