<svg width="512" height="512" viewBox="0 0 120 120" fill="none" xmlns="http://www.w3.org/2000/svg">
  <rect width="120" height="120" rx="28" fill="#FFFFFF"/>
  <path d="M34 53.5C34 39.4167 45.4167 28 59.5 28H86.5" stroke="#171717" stroke-width="8" stroke-linecap="round"/>
  <path d="M34 53.5V78.5C34 92.5833 45.4167 104 59.5 104H77.5C91.5833 104 103 92.5833 103 78.5V56.5" stroke="#171717" stroke-width="8" stroke-linecap="round" stroke-linejoin="round"/>
  <circle cx="95.5" cy="30.5" r="13.5" fill="#171717"/>
  <path d="M47 57C47 54.2386 49.2386 52 52 52H62C64.7614 52 67 54.2386 67 57V77C67 81.9706 71.0294 86 76 86C80.9706 86 85 81.9706 85 77V47C85 44.2386 87.2386 42 90 42H98C100.761 42 103 44.2386 103 47V77C103 92.464 90.464 105 75 105C59.536 105 47 92.464 47 77V57Z" fill="#171717"/>
  <rect x="52" y="56" width="10" height="10" fill="#FFFFFF"/>
  <rect x="90" y="47" width="8" height="8" fill="#FFFFFF"/>
  <path d="M56 44L50 38" stroke="#171717" stroke-width="5" stroke-linecap="round"/>
  <path d="M66 41L69 32" stroke="#171717" stroke-width="5" stroke-linecap="round"/>
</svg>
